<svg width="8" height="9" viewBox="0 0 8 9" fill="none" xmlns="http://www.w3.org/2000/svg">
<path d="M7.99988 8.07141V5.14141C7.99988 3.70141 7.68988 2.60141 6.00988 2.60141C5.19988 2.60141 4.65988 3.04141 4.43988 3.46141H4.41988V2.73141H2.82988V8.07141H4.48988V5.42141C4.48988 4.72141 4.61988 4.05141 5.47988 4.05141C6.32988 4.05141 6.33988 4.84141 6.33988 5.46141V8.06141H7.99988V8.07141Z" fill="#5C6168"/>
<path d="M0.130066 2.73151H1.79007V8.07151H0.130066V2.73151Z" fill="#5C6168"/>
<path d="M0.96 0.0715332C0.43 0.0715332 0 0.501533 0 1.03153C0 1.56153 0.43 2.00153 0.96 2.00153C1.49 2.00153 1.92 1.56153 1.92 1.03153C1.92 0.501533 1.49 0.0715332 0.96 0.0715332Z" fill="#5C6168"/>
</svg>
