<svg width="9" height="8" viewBox="0 0 9 8" fill="none" xmlns="http://www.w3.org/2000/svg">
<path d="M8.19632 7.07162C8.39863 7.07162 8.57392 7.00482 8.72294 6.87292L6.1731 4.32298C6.11192 4.36679 6.05263 4.40939 5.99661 4.4499C5.80579 4.59049 5.65092 4.70019 5.532 4.7788C5.41309 4.8576 5.25489 4.93791 5.0574 5.0199C4.85979 5.10199 4.67569 5.14291 4.5049 5.14291H4.4999H4.4949C4.3241 5.14291 4.13999 5.10201 3.94239 5.0199C3.74479 4.93791 3.58659 4.8576 3.4678 4.7788C3.34889 4.70019 3.1941 4.5905 3.00319 4.4499C2.94998 4.41089 2.89098 4.3681 2.82719 4.3223L0.276855 6.87292C0.42586 7.00482 0.60127 7.07162 0.80356 7.07162H8.19632Z" fill="#5C6168"/>
<path d="M0.507309 2.71721C0.316506 2.59 0.147305 2.44432 0 2.28021V6.15974L2.24742 3.91232C1.79781 3.59843 1.21851 3.20051 0.507309 2.71721Z" fill="#5C6168"/>
<path d="M8.49787 2.71721C7.81379 3.18022 7.23238 3.57882 6.75357 3.91322L9.00009 6.15984V2.28021C8.85606 2.44101 8.68867 2.5866 8.49787 2.71721Z" fill="#5C6168"/>
<path d="M8.19645 0H0.803703C0.545792 0 0.347506 0.0870922 0.2086 0.261097C0.0695791 0.435184 0.000183105 0.652898 0.000183105 0.913995C0.000183105 1.1249 0.0922754 1.35341 0.276378 1.59961C0.460481 1.8457 0.656382 2.03901 0.863982 2.17961C0.97779 2.26002 1.321 2.49862 1.8936 2.89532C2.2027 3.10952 2.47151 3.29622 2.70251 3.45733C2.89941 3.59453 3.06921 3.71333 3.20941 3.81193C3.22551 3.82322 3.25082 3.84132 3.28441 3.86534C3.3206 3.89134 3.36641 3.92433 3.42291 3.96513C3.53172 4.04383 3.62211 4.10744 3.6941 4.15603C3.766 4.20464 3.85311 4.25894 3.9553 4.31924C4.05741 4.37945 4.15372 4.42473 4.24411 4.45484C4.33452 4.48494 4.41821 4.50004 4.49521 4.50004H4.50021H4.50521C4.58218 4.50004 4.66589 4.48494 4.75632 4.45484C4.8467 4.42473 4.94292 4.37955 5.04511 4.31924C5.14721 4.25894 5.2342 4.20453 5.30632 4.15603C5.37832 4.10744 5.46871 4.04384 5.57754 3.96513C5.63393 3.92433 5.67973 3.89133 5.71592 3.86543C5.74953 3.84131 5.77483 3.82332 5.79102 3.81193C5.90024 3.73593 6.07043 3.61761 6.29926 3.45872C6.71563 3.16942 7.32884 2.74362 8.14146 2.17961C8.38586 2.00891 8.59005 1.80291 8.75415 1.56191C8.91796 1.32091 9.00008 1.06811 9.00008 0.803602C9.00008 0.582603 8.92046 0.3935 8.76155 0.235999C8.60247 0.0786935 8.41408 0 8.19645 0Z" fill="#5C6168"/>
</svg>
