<svg width="7" height="11" viewBox="0 0 7 11" fill="none" xmlns="http://www.w3.org/2000/svg">
<path fill-rule="evenodd" clip-rule="evenodd" d="M2.7273 8.70789H3.63639C3.8873 8.70789 4.09093 8.50425 4.09093 8.25334C4.09093 8.00243 3.8873 7.7988 3.63639 7.7988H2.7273C2.47639 7.7988 2.27275 8.00243 2.27275 8.25334C2.27275 8.50425 2.47639 8.70789 2.7273 8.70789Z" fill="#5C6168"/>
<path fill-rule="evenodd" clip-rule="evenodd" d="M6.36364 1.43517C6.36364 1.07335 6.22 0.726533 5.96409 0.471079C5.70864 0.21517 5.36182 0.0715332 5 0.0715332C3.99091 0.0715332 2.37273 0.0715332 1.36364 0.0715332C1.00182 0.0715332 0.655 0.21517 0.399546 0.471079C0.143636 0.726533 0 1.07335 0 1.43517V8.7079C0 9.06972 0.143636 9.41653 0.399546 9.67199C0.655 9.9279 1.00182 10.0715 1.36364 10.0715H5C5.36182 10.0715 5.70864 9.9279 5.96409 9.67199C6.22 9.41653 6.36364 9.06972 6.36364 8.7079V1.43517ZM5.45455 1.43517V8.7079C5.45455 8.82835 5.40682 8.94426 5.32136 9.02926C5.23636 9.11472 5.12045 9.16244 5 9.16244C3.99091 9.16244 2.37273 9.16244 1.36364 9.16244C1.24318 9.16244 1.12727 9.11472 1.04227 9.02926C0.956818 8.94426 0.909091 8.82835 0.909091 8.7079C0.909091 6.96608 0.909091 3.17699 0.909091 1.43517C0.909091 1.31472 0.956818 1.19881 1.04227 1.11381C1.12727 1.02835 1.24318 0.980624 1.36364 0.980624H5C5.12045 0.980624 5.23636 1.02835 5.32136 1.11381C5.40682 1.19881 5.45455 1.31472 5.45455 1.43517Z" fill="#5C6168"/>
</svg>
