<svg width="8" height="11" viewBox="0 0 8 11" fill="none" xmlns="http://www.w3.org/2000/svg">
<path d="M4 0C1.79439 0 0 1.78712 0 3.98377C0 6.70988 3.57961 10.712 3.73201 10.881C3.87516 11.0398 4.1251 11.0395 4.26799 10.881C4.42039 10.712 8 6.70988 8 3.98377C7.99996 1.78712 6.20559 0 4 0ZM4 5.98811C2.8903 5.98811 1.98752 5.08897 1.98752 3.98377C1.98752 2.87857 2.89032 1.97944 4 1.97944C5.10968 1.97944 6.01246 2.87859 6.01246 3.98379C6.01246 5.08899 5.10968 5.98811 4 5.98811Z" fill="#5C6168"/>
</svg>
